<svg xmlns="http://www.w3.org/2000/svg" class="graphdiagram" viewBox="-1039.665624942485 -456.57975212963515 1536 683"><g class="layer relationships"><g class="related-pair"><g class="relationship" transform="translate(-291.83973602294924,-109.2448464202881) rotate(-163.0510718260943)"><path class="relationship" d="M 43.28175204423028 1 L 350.6772595554039 1 L 350.6772595554039 4 L 358.6772595554039 0 L 350.6772595554039 -4 L 350.6772595554039 -1 L 43.28175204423028 -1 Z" fill="rgba(0, 0, 0, 0.3)" stroke="rgb(51, 51, 51)" stroke-width="0px"/><text class="type" text-anchor="middle" baseline-shift="30%" alignment-baseline="alphabetic" x="-196.97950579981708" y="0" font-size="14px" font-family="&quot;Helvetica Neue&quot;, Helvetica, Arial, sans-serif" transform="rotate(180)">AGAINST</text></g></g><g class="related-pair"><g class="relationship" transform="translate(-390.33981201171883,-360.0746188354493) rotate(68.56021741643536)"><path class="relationship" d="M 50.52470622728633 1 L 218.19522229612963 1 L 218.19522229612963 4 L 226.19522229612963 0 L 218.19522229612963 -4 L 218.19522229612963 -1 L 50.52470622728633 -1 Z" fill="rgba(0, 0, 0, 0.3)" stroke="rgb(51, 51, 51)" stroke-width="0px"/><text class="type" text-anchor="middle" baseline-shift="30%" alignment-baseline="alphabetic" x="134.359964261708" y="0" font-size="14px" font-family="&quot;Helvetica Neue&quot;, Helvetica, Arial, sans-serif">TO</text></g></g><g class="related-pair"><g class="relationship" transform="translate(-390.33981201171883,-360.0746188354493) rotate(0)"><path class="relationship" d="M 50.17870431948862,-5.986950156041066 L 50.37630439365712,-3.9967355418125896 A Infinity Infinity 0 0 1 -58.337162850571026,4.787135838486606 L -58.633562961823785,1.8018139171438912 L -50.27750435657287,4.991842848926828 L -57.84316266514976,9.762672374057797 L -58.13956277640252,6.777350452715082 A Infinity Infinity 0 0 0 50.17870431948862,-5.986950156041066" fill="rgba(0, 0, 0, 0.3)" stroke="rgb(51, 51, 51)" stroke-width="0px"/></g><g class="relationship" transform="translate(-390.33981201171883,-360.0746188354493) rotate(0)"><path class="relationship" d="M 50.17870431948862,5.986950156041066 L 50.37630439365712,3.9967355418125896 A Infinity Infinity 0 0 0 -58.337162850571026,-4.787135838486606 L -58.633562961823785,-1.8018139171438912 L -50.27750435657287,-4.991842848926828 L -57.84316266514976,-9.762672374057797 L -58.13956277640252,-6.777350452715082 A Infinity Infinity 0 0 1 50.17870431948862,5.986950156041066" fill="rgba(0, 0, 0, 0.3)" stroke="rgb(51, 51, 51)" stroke-width="0px"/></g></g><g class="related-pair"><g class="relationship" transform="translate(-291.83973602294924,-109.2448464202881) rotate(162.1861265309864)"><path class="relationship" d="M 43.28175204423028 1 L 339.7593061080042 1 L 339.7593061080042 4 L 347.7593061080042 0 L 339.7593061080042 -4 L 339.7593061080042 -1 L 43.28175204423028 -1 Z" fill="rgba(0, 0, 0, 0.3)" stroke="rgb(51, 51, 51)" stroke-width="0px"/><text class="type" text-anchor="middle" baseline-shift="30%" alignment-baseline="alphabetic" transform="rotate(180)" x="-191.5205290761172" y="0" font-size="14px" font-family="&quot;Helvetica Neue&quot;, Helvetica, Arial, sans-serif">WITH</text></g></g><g class="related-pair"><g class="relationship" transform="translate(-291.83973602294924,-109.2448464202881) rotate(15.156718509102541)"><path class="relationship" d="M 43.28175204423028 1 L 396.87397696294875 1 L 396.87397696294875 4 L 404.87397696294875 0 L 396.87397696294875 -4 L 396.87397696294875 -1 L 43.28175204423028 -1 Z" fill="rgba(0, 0, 0, 0.3)" stroke="rgb(51, 51, 51)" stroke-width="0px"/><text class="type" text-anchor="middle" baseline-shift="30%" alignment-baseline="alphabetic" x="220.0778645035895" y="0" font-size="14px" font-family="&quot;Helvetica Neue&quot;, Helvetica, Arial, sans-serif">ABOUT</text></g></g><g class="related-pair"><g class="relationship" transform="translate(-291.83973602294924,-109.2448464202881) rotate(63.65346204163537)"><path class="relationship" d="M 43.28175204423028 1 L 190.8355995791389 1 L 190.8355995791389 4 L 198.8355995791389 0 L 190.8355995791389 -4 L 190.8355995791389 -1 L 43.28175204423028 -1 Z" fill="rgba(0, 0, 0, 0.3)" stroke="rgb(51, 51, 51)" stroke-width="0px"/><text class="type" text-anchor="middle" baseline-shift="30%" alignment-baseline="alphabetic" x="117.0586758116846" y="0" font-size="14px" font-family="&quot;Helvetica Neue&quot;, Helvetica, Arial, sans-serif">ABOUT</text></g></g><g class="related-pair"><g class="relationship" transform="translate(-182.18651123046877,112.16864868164063) rotate(-18.561845118156125)"><path class="relationship" d="M 48.24286067315036 1 L 289.22062031585875 1 L 289.22062031585875 4 L 297.22062031585875 0 L 289.22062031585875 -4 L 289.22062031585875 -1 L 48.24286067315036 -1 Z" fill="rgba(0, 0, 0, 0.3)" stroke="rgb(51, 51, 51)" stroke-width="0px"/><text class="type" text-anchor="middle" baseline-shift="30%" alignment-baseline="alphabetic" x="168.73174049450455" y="0" font-size="14px" font-family="&quot;Helvetica Neue&quot;, Helvetica, Arial, sans-serif">IN CATEGORY</text></g></g><g class="related-pair"><g class="relationship" transform="translate(-291.83973602294924,-109.2448464202881) rotate(127.13011568099239)"><path class="relationship" d="M 43.28175204423028 1 L 246.34975135842907 1 L 246.34975135842907 4 L 254.34975135842907 0 L 246.34975135842907 -4 L 246.34975135842907 -1 L 43.28175204423028 -1 Z" fill="rgba(0, 0, 0, 0.3)" stroke="rgb(51, 51, 51)" stroke-width="0px"/></g></g><g class="related-pair"><g class="relationship" transform="translate(-470.12915283203125,126.23864868164063) rotate(-146.3486133449751)"><path class="relationship" d="M 41.013740988784804 1 L 179.7434756517914 1 L 179.7434756517914 4 L 187.7434756517914 0 L 179.7434756517914 -4 L 179.7434756517914 -1 L 41.013740988784804 -1 Z" fill="rgba(0, 0, 0, 0.3)" stroke="rgb(51, 51, 51)" stroke-width="0px"/><text class="type" text-anchor="middle" baseline-shift="30%" alignment-baseline="alphabetic" transform="rotate(180)" x="-110.37860832028811" y="0" font-size="14px" font-family="&quot;Helvetica Neue&quot;, Helvetica, Arial, sans-serif">IN CATEGORY</text></g></g></g><g class="layer nodes"><circle class="node node-id-0" r="37.78175204423028" fill="rgb(247, 247, 249)" stroke="rgba(0, 0, 0, 0.3)" stroke-width="1px" cx="-291.83973602294924" cy="-109.2448464202881"/><g class="caption"><text class="caption node" text-anchor="middle" alignment-baseline="central" x="-291.83973602294924" y="-109.2448464202881" fill="rgb(51, 51, 51)" font-size="14px" font-family="&quot;Helvetica Neue&quot;, Helvetica, Arial, sans-serif">Complaint</text></g><circle class="node node-id-2" r="36.26542683271653" fill="rgb(247, 247, 249)" stroke="rgba(0, 0, 0, 0.3)" stroke-width="1px" cx="-674.8891894531254" cy="-225.98156433105476"/><g class="caption"><text class="caption node" text-anchor="middle" alignment-baseline="central" x="-674.8891894531254" y="-225.98156433105476" fill="rgb(51, 51, 51)" font-size="14px" font-family="&quot;Helvetica Neue&quot;, Helvetica, Arial, sans-serif">Company</text></g><circle class="node node-id-3" r="42.74286067315036" fill="rgb(247, 247, 249)" stroke="rgba(0, 0, 0, 0.3)" stroke-width="1px" cx="-182.18651123046877" cy="112.16864868164063"/><g class="caption"><text class="caption node" text-anchor="middle" alignment-baseline="central" x="-182.18651123046877" y="112.16864868164063" fill="rgb(51, 51, 51)" font-size="14px" font-family="&quot;Helvetica Neue&quot;, Helvetica, Arial, sans-serif">SubProduct</text></g><circle class="node node-id-4" r="45.02470622728633" fill="rgb(247, 247, 249)" stroke="rgba(0, 0, 0, 0.3)" stroke-width="1px" cx="-390.33981201171883" cy="-360.0746188354493"/><g class="caption"><text class="caption node" text-anchor="middle" alignment-baseline="central" x="-390.33981201171883" y="-360.0746188354493" fill="rgb(51, 51, 51)" font-size="14px" font-family="&quot;Helvetica Neue&quot;, Helvetica, Arial, sans-serif">RESPONSE</text></g><circle class="node node-id-5" r="23.636287469643115" fill="rgb(247, 247, 249)" stroke="rgba(0, 0, 0, 0.3)" stroke-width="1px" cx="-650.6652001953125" cy="6.0572555541992195"/><g class="caption"><text class="caption node" text-anchor="middle" alignment-baseline="central" x="-650.6652001953125" y="6.0572555541992195" fill="rgb(51, 51, 51)" font-size="14px" font-family="&quot;Helvetica Neue&quot;, Helvetica, Arial, sans-serif">Issue</text></g><circle class="node node-id-6" r="30.619086504350616" fill="rgb(247, 247, 249)" stroke="rgba(0, 0, 0, 0.3)" stroke-width="1px" cx="133.81306533813478" cy="6.0572555541992195"/><g class="caption"><text class="caption node" text-anchor="middle" alignment-baseline="central" x="133.81306533813478" y="6.0572555541992195" fill="rgb(51, 51, 51)" font-size="14px" font-family="&quot;Helvetica Neue&quot;, Helvetica, Arial, sans-serif">Product</text></g><circle class="node node-id-12" r="35.513740988784804" fill="rgb(247, 247, 249)" stroke="rgba(0, 0, 0, 0.3)" stroke-width="1px" cx="-470.12915283203125" cy="126.23864868164063"/><g class="caption"><text class="caption node" text-anchor="middle" alignment-baseline="central" x="-470.12915283203125" y="126.23864868164063" fill="rgb(51, 51, 51)" font-size="14px" font-family="&quot;Helvetica Neue&quot;, Helvetica, Arial, sans-serif">SubIssue</text></g></g><g class="layer properties"><g class="speech-bubble node-speech-bubble" transform="translate(-265.1240029473653,-135.96057949587203) "><path class="speech-bubble-outline" transform="scale(1,-1) " d="M 0 0 L 16 12 L 123.064453125 12 A 4 4 0 0 1 127.064453125 16 L 127.064453125 72 A 4 4 0 0 1 123.064453125 76 L 16 76 A 4 4 0 0 1 12 72 L 12 16 Z" fill="rgb(255, 255, 255)" stroke="rgba(0, 0, 0, 0.5)" stroke-width="1px"/><text class="speech-bubble-content property-key" x="77.3046875" y="-65" alignment-baseline="central" text-anchor="end" font-size="14px" font-family="&quot;Helvetica Neue&quot;, Helvetica, Arial, sans-serif" xml:space="preserve">{"id": </text><text class="speech-bubble-content property-key" x="77.3046875" y="-51" alignment-baseline="central" text-anchor="end" font-size="14px" font-family="&quot;Helvetica Neue&quot;, Helvetica, Arial, sans-serif" xml:space="preserve">{"day": </text><text class="speech-bubble-content property-value" x="77.3046875" y="-65" alignment-baseline="central" font-size="14px" font-family="&quot;Helvetica Neue&quot;, Helvetica, Arial, sans-serif">123}</text><text class="speech-bubble-content property-value" x="77.3046875" y="-51" alignment-baseline="central" font-size="14px" font-family="&quot;Helvetica Neue&quot;, Helvetica, Arial, sans-serif">"23"}</text><text class="speech-bubble-content property-key" x="77.3046875" y="-37" alignment-baseline="central" text-anchor="end" font-size="14px" font-family="&quot;Helvetica Neue&quot;, Helvetica, Arial, sans-serif" xml:space="preserve">{"month": </text><text class="speech-bubble-content property-key" x="77.3046875" y="-23" alignment-baseline="central" text-anchor="end" font-size="14px" font-family="&quot;Helvetica Neue&quot;, Helvetica, Arial, sans-serif" xml:space="preserve">{"year": </text><text class="speech-bubble-content property-value" x="77.3046875" y="-37" alignment-baseline="central" font-size="14px" font-family="&quot;Helvetica Neue&quot;, Helvetica, Arial, sans-serif">"02"}</text><text class="speech-bubble-content property-value" x="77.3046875" y="-23" alignment-baseline="central" font-size="14px" font-family="&quot;Helvetica Neue&quot;, Helvetica, Arial, sans-serif">"2018"}</text></g><g class="speech-bubble node-speech-bubble" transform="translate(-711.1546162858419,-225.98156433105476) "><path class="speech-bubble-outline" transform="scale(-1,1) " d="M 0 0 L 12 -4 L 12 -7 A 4 4 0 0 1 16 -11 L 97.716796875 -11 A 4 4 0 0 1 101.716796875 -7 L 101.716796875 7 A 4 4 0 0 1 97.716796875 11 L 16 11 A 4 4 0 0 1 12 7 L 12 4 Z" fill="rgb(255, 255, 255)" stroke="rgba(0, 0, 0, 0.5)" stroke-width="1px"/><text class="speech-bubble-content property-key" x="-50.2412109375" y="0" alignment-baseline="central" text-anchor="end" font-size="14px" font-family="&quot;Helvetica Neue&quot;, Helvetica, Arial, sans-serif" xml:space="preserve">{name: </text><text class="speech-bubble-content property-value" x="-50.2412109375" y="0" alignment-baseline="central" font-size="14px" font-family="&quot;Helvetica Neue&quot;, Helvetica, Arial, sans-serif">BOA}</text></g><g class="speech-bubble node-speech-bubble" transform="translate(-212.4102778597652,142.39241531093705) "><path class="speech-bubble-outline" transform="scale(-1,1) " d="M 0 0 L 16 12 L 133.509765625 12 A 4 4 0 0 1 137.509765625 16 L 137.509765625 30 A 4 4 0 0 1 133.509765625 34 L 16 34 A 4 4 0 0 1 12 30 L 12 16 Z" fill="rgb(255, 255, 255)" stroke="rgba(0, 0, 0, 0.5)" stroke-width="1px"/><text class="speech-bubble-content property-key" x="-86.0341796875" y="23" alignment-baseline="central" text-anchor="end" font-size="14px" font-family="&quot;Helvetica Neue&quot;, Helvetica, Arial, sans-serif" xml:space="preserve">{name: </text><text class="speech-bubble-content property-value" x="-86.0341796875" y="23" alignment-baseline="central" font-size="14px" font-family="&quot;Helvetica Neue&quot;, Helvetica, Arial, sans-serif">credit card}</text></g><g class="speech-bubble relationship-speech-bubble" transform="translate(-341.2281329080676,-235.0120626004697) "><path class="speech-bubble-outline" transform="scale(-1,1) " d="M 0 0 L 16 12 L 110.185546875 12 A 4 4 0 0 1 114.185546875 16 L 114.185546875 44 A 4 4 0 0 1 110.185546875 48 L 16 48 A 4 4 0 0 1 12 44 L 12 16 Z" fill="rgb(255, 255, 255)" stroke="rgba(0, 0, 0, 0.5)" stroke-width="1px"/><text class="speech-bubble-content property-key" x="-44.7998046875" y="23" alignment-baseline="central" text-anchor="end" font-size="14px" font-family="&quot;Helvetica Neue&quot;, Helvetica, Arial, sans-serif" xml:space="preserve">{disputed: </text><text class="speech-bubble-content property-key" x="-44.7998046875" y="37" alignment-baseline="central" text-anchor="end" font-size="14px" font-family="&quot;Helvetica Neue&quot;, Helvetica, Arial, sans-serif" xml:space="preserve">{timely: </text><text class="speech-bubble-content property-value" x="-44.7998046875" y="23" alignment-baseline="central" font-size="14px" font-family="&quot;Helvetica Neue&quot;, Helvetica, Arial, sans-serif">true}</text><text class="speech-bubble-content property-value" x="-44.7998046875" y="37" alignment-baseline="central" font-size="14px" font-family="&quot;Helvetica Neue&quot;, Helvetica, Arial, sans-serif">true}</text></g><g class="speech-bubble node-speech-bubble" transform="translate(-422.1770871059652,-391.9118939296957) "><path class="speech-bubble-outline" transform="scale(-1,-1) " d="M 0 0 L 16 12 L 142.068359375 12 A 4 4 0 0 1 146.068359375 16 L 146.068359375 30 A 4 4 0 0 1 142.068359375 34 L 16 34 A 4 4 0 0 1 12 30 L 12 16 Z" fill="rgb(255, 255, 255)" stroke="rgba(0, 0, 0, 0.5)" stroke-width="1px"/><text class="speech-bubble-content property-key" x="-92.26171875" y="-23" alignment-baseline="central" text-anchor="end" font-size="14px" font-family="&quot;Helvetica Neue&quot;, Helvetica, Arial, sans-serif" xml:space="preserve">{status: </text><text class="speech-bubble-content property-value" x="-92.26171875" y="-23" alignment-baseline="central" font-size="14px" font-family="&quot;Helvetica Neue&quot;, Helvetica, Arial, sans-serif">In Progress}</text></g><g class="speech-bubble node-speech-bubble" transform="translate(-674.3014876649556,6.0572555541992195) "><path class="speech-bubble-outline" transform="scale(-1,1) " d="M 0 0 L 12 -4 L 12 -7 A 4 4 0 0 1 16 -11 L 135.84765625 -11 A 4 4 0 0 1 139.84765625 -7 L 139.84765625 7 A 4 4 0 0 1 135.84765625 11 L 16 11 A 4 4 0 0 1 12 7 L 12 4 Z" fill="rgb(255, 255, 255)" stroke="rgba(0, 0, 0, 0.5)" stroke-width="1px"/><text class="speech-bubble-content property-key" x="-88.3720703125" y="0" alignment-baseline="central" text-anchor="end" font-size="14px" font-family="&quot;Helvetica Neue&quot;, Helvetica, Arial, sans-serif" xml:space="preserve">{name: </text><text class="speech-bubble-content property-value" x="-88.3720703125" y="0" alignment-baseline="central" font-size="14px" font-family="&quot;Helvetica Neue&quot;, Helvetica, Arial, sans-serif">someIssue}</text></g><g class="speech-bubble node-speech-bubble" transform="translate(164.43215184248538,6.0572555541992195) "><path class="speech-bubble-outline" transform="scale(1,1) " d="M 0 0 L 12 -4 L 12 -7 A 4 4 0 0 1 16 -11 L 102.3857421875 -11 A 4 4 0 0 1 106.3857421875 -7 L 106.3857421875 7 A 4 4 0 0 1 102.3857421875 11 L 16 11 A 4 4 0 0 1 12 7 L 12 4 Z" fill="rgb(255, 255, 255)" stroke="rgba(0, 0, 0, 0.5)" stroke-width="1px"/><text class="speech-bubble-content property-key" x="63.4755859375" y="0" alignment-baseline="central" text-anchor="end" font-size="14px" font-family="&quot;Helvetica Neue&quot;, Helvetica, Arial, sans-serif" xml:space="preserve">{name: </text><text class="speech-bubble-content property-value" x="63.4755859375" y="0" alignment-baseline="central" font-size="14px" font-family="&quot;Helvetica Neue&quot;, Helvetica, Arial, sans-serif">cards}</text></g><g class="speech-bubble node-speech-bubble" transform="translate(-470.12915283203125,161.75238967042543) "><path class="speech-bubble-outline" transform="scale(1,1) " d="M 0 0 L -4 12 L -73.93408203125 12 A 4 4 0 0 0 -77.93408203125 16 L -77.93408203125 30 A 4 4 0 0 0 -73.93408203125 34 L 73.93408203125 34 A 4 4 0 0 0 77.93408203125 30 L 77.93408203125 16 A 4 4 0 0 0 73.93408203125 12 L 4 12 Z" fill="rgb(255, 255, 255)" stroke="rgba(0, 0, 0, 0.5)" stroke-width="1px"/><text class="speech-bubble-content property-key" x="-26.45849609375" y="23" alignment-baseline="central" text-anchor="end" font-size="14px" font-family="&quot;Helvetica Neue&quot;, Helvetica, Arial, sans-serif" xml:space="preserve">{name: </text><text class="speech-bubble-content property-value" x="-26.45849609375" y="23" alignment-baseline="central" font-size="14px" font-family="&quot;Helvetica Neue&quot;, Helvetica, Arial, sans-serif">SubIssueName}</text></g></g><g class="layer overlay"><circle class="node overlay" r="38.28175204423028" stroke="none" fill="rgba(255, 255, 255, 0)" cx="-291.83973602294924" cy="-109.2448464202881"/><circle class="node ring" r="43.28175204423028" fill="none" stroke="rgba(255, 255, 255, 0)" stroke-width="10px" cx="-291.83973602294924" cy="-109.2448464202881"/><circle class="node overlay" r="36.76542683271653" stroke="none" fill="rgba(255, 255, 255, 0)" cx="-674.8891894531254" cy="-225.98156433105476"/><circle class="node ring" r="41.76542683271653" fill="none" stroke="rgba(255, 255, 255, 0)" stroke-width="10px" cx="-674.8891894531254" cy="-225.98156433105476"/><path class="relationship overlay" fill="rgba(255, 255, 255, 0)" stroke="rgba(255, 255, 255, 0)" stroke-width="10px" transform="translate(-291.83973602294924,-109.2448464202881) rotate(-163.0510718260943)" d="M 43.28175204423028 1 L 350.6772595554039 1 L 350.6772595554039 4 L 358.6772595554039 0 L 350.6772595554039 -4 L 350.6772595554039 -1 L 43.28175204423028 -1 Z"/><path class="relationship overlay" fill="rgba(255, 255, 255, 0)" stroke="rgba(255, 255, 255, 0)" stroke-width="10px" transform="translate(-390.33981201171883,-360.0746188354493) rotate(68.56021741643536)" d="M 50.52470622728633 1 L 218.19522229612963 1 L 218.19522229612963 4 L 226.19522229612963 0 L 218.19522229612963 -4 L 218.19522229612963 -1 L 50.52470622728633 -1 Z"/><circle class="node overlay" r="43.24286067315036" stroke="none" fill="rgba(255, 255, 255, 0)" cx="-182.18651123046877" cy="112.16864868164063"/><circle class="node ring" r="48.24286067315036" fill="none" stroke="rgba(255, 255, 255, 0)" stroke-width="10px" cx="-182.18651123046877" cy="112.16864868164063"/><path class="relationship overlay" fill="rgba(255, 255, 255, 0)" stroke="rgba(255, 255, 255, 0)" stroke-width="10px" transform="translate(-390.33981201171883,-360.0746188354493) rotate(0)" d="M 50.17870431948862,-5.986950156041066 L 50.37630439365712,-3.9967355418125896 A Infinity Infinity 0 0 1 -58.337162850571026,4.787135838486606 L -58.633562961823785,1.8018139171438912 L -50.27750435657287,4.991842848926828 L -57.84316266514976,9.762672374057797 L -58.13956277640252,6.777350452715082 A Infinity Infinity 0 0 0 50.17870431948862,-5.986950156041066"/><circle class="node overlay" r="45.52470622728633" stroke="none" fill="rgba(255, 255, 255, 0)" cx="-390.33981201171883" cy="-360.0746188354493"/><circle class="node ring" r="50.52470622728633" fill="none" stroke="rgba(255, 255, 255, 0)" stroke-width="10px" cx="-390.33981201171883" cy="-360.0746188354493"/><path class="relationship overlay" fill="rgba(255, 255, 255, 0)" stroke="rgba(255, 255, 255, 0)" stroke-width="10px" transform="translate(-390.33981201171883,-360.0746188354493) rotate(0)" d="M 50.17870431948862,5.986950156041066 L 50.37630439365712,3.9967355418125896 A Infinity Infinity 0 0 0 -58.337162850571026,-4.787135838486606 L -58.633562961823785,-1.8018139171438912 L -50.27750435657287,-4.991842848926828 L -57.84316266514976,-9.762672374057797 L -58.13956277640252,-6.777350452715082 A Infinity Infinity 0 0 1 50.17870431948862,5.986950156041066"/><circle class="node overlay" r="24.136287469643115" stroke="none" fill="rgba(255, 255, 255, 0)" cx="-650.6652001953125" cy="6.0572555541992195"/><circle class="node ring" r="29.136287469643115" fill="none" stroke="rgba(255, 255, 255, 0)" stroke-width="10px" cx="-650.6652001953125" cy="6.0572555541992195"/><path class="relationship overlay" fill="rgba(255, 255, 255, 0)" stroke="rgba(255, 255, 255, 0)" stroke-width="10px" transform="translate(-291.83973602294924,-109.2448464202881) rotate(162.1861265309864)" d="M 43.28175204423028 1 L 339.7593061080042 1 L 339.7593061080042 4 L 347.7593061080042 0 L 339.7593061080042 -4 L 339.7593061080042 -1 L 43.28175204423028 -1 Z"/><circle class="node overlay" r="31.119086504350616" stroke="none" fill="rgba(255, 255, 255, 0)" cx="133.81306533813478" cy="6.0572555541992195"/><circle class="node ring" r="36.11908650435062" fill="none" stroke="rgba(255, 255, 255, 0)" stroke-width="10px" cx="133.81306533813478" cy="6.0572555541992195"/><path class="relationship overlay" fill="rgba(255, 255, 255, 0)" stroke="rgba(255, 255, 255, 0)" stroke-width="10px" transform="translate(-291.83973602294924,-109.2448464202881) rotate(15.156718509102541)" d="M 43.28175204423028 1 L 396.87397696294875 1 L 396.87397696294875 4 L 404.87397696294875 0 L 396.87397696294875 -4 L 396.87397696294875 -1 L 43.28175204423028 -1 Z"/><path class="relationship overlay" fill="rgba(255, 255, 255, 0)" stroke="rgba(255, 255, 255, 0)" stroke-width="10px" transform="translate(-291.83973602294924,-109.2448464202881) rotate(63.65346204163537)" d="M 43.28175204423028 1 L 190.8355995791389 1 L 190.8355995791389 4 L 198.8355995791389 0 L 190.8355995791389 -4 L 190.8355995791389 -1 L 43.28175204423028 -1 Z"/><path class="relationship overlay" fill="rgba(255, 255, 255, 0)" stroke="rgba(255, 255, 255, 0)" stroke-width="10px" transform="translate(-182.18651123046877,112.16864868164063) rotate(-18.561845118156125)" d="M 48.24286067315036 1 L 289.22062031585875 1 L 289.22062031585875 4 L 297.22062031585875 0 L 289.22062031585875 -4 L 289.22062031585875 -1 L 48.24286067315036 -1 Z"/><circle class="node overlay" r="36.013740988784804" stroke="none" fill="rgba(255, 255, 255, 0)" cx="-470.12915283203125" cy="126.23864868164063"/><circle class="node ring" r="41.013740988784804" fill="none" stroke="rgba(255, 255, 255, 0)" stroke-width="10px" cx="-470.12915283203125" cy="126.23864868164063"/><path class="relationship overlay" fill="rgba(255, 255, 255, 0)" stroke="rgba(255, 255, 255, 0)" stroke-width="10px" transform="translate(-291.83973602294924,-109.2448464202881) rotate(127.13011568099239)" d="M 43.28175204423028 1 L 246.34975135842907 1 L 246.34975135842907 4 L 254.34975135842907 0 L 246.34975135842907 -4 L 246.34975135842907 -1 L 43.28175204423028 -1 Z"/><path class="relationship overlay" fill="rgba(255, 255, 255, 0)" stroke="rgba(255, 255, 255, 0)" stroke-width="10px" transform="translate(-470.12915283203125,126.23864868164063) rotate(-146.3486133449751)" d="M 41.013740988784804 1 L 179.7434756517914 1 L 179.7434756517914 4 L 187.7434756517914 0 L 179.7434756517914 -4 L 179.7434756517914 -1 L 41.013740988784804 -1 Z"/></g></svg>